<mxfile host="app.diagrams.net" modified="2023-08-25T09:53:48.881Z" agent="Mozilla/5.0 (Windows NT 10.0; Win64; x64) AppleWebKit/537.36 (KHTML, like Gecko) Chrome/114.0.0.0 Safari/537.36" etag="R5Ul5jEbZtznGpZ4KG0W" version="21.6.8" type="github">
  <diagram name="第 1 页" id="KcCtC3kfcFwW9gEghI9U">
    <mxGraphModel dx="2261" dy="1933" grid="1" gridSize="10" guides="1" tooltips="1" connect="1" arrows="1" fold="1" page="1" pageScale="1" pageWidth="827" pageHeight="1169" math="0" shadow="0">
      <root>
        <mxCell id="0" />
        <mxCell id="1" parent="0" />
        <mxCell id="aq9Wkju7WMieX76XpXOd-4" style="edgeStyle=orthogonalEdgeStyle;rounded=0;orthogonalLoop=1;jettySize=auto;html=1;exitX=0;exitY=0.5;exitDx=0;exitDy=0;entryX=0.5;entryY=0;entryDx=0;entryDy=0;" parent="1" source="aq9Wkju7WMieX76XpXOd-1" target="aq9Wkju7WMieX76XpXOd-2" edge="1">
          <mxGeometry relative="1" as="geometry" />
        </mxCell>
        <mxCell id="aq9Wkju7WMieX76XpXOd-5" value="定时拉" style="edgeLabel;html=1;align=center;verticalAlign=middle;resizable=0;points=[];" parent="aq9Wkju7WMieX76XpXOd-4" vertex="1" connectable="0">
          <mxGeometry x="0.3308" y="3" relative="1" as="geometry">
            <mxPoint as="offset" />
          </mxGeometry>
        </mxCell>
        <mxCell id="aq9Wkju7WMieX76XpXOd-1" value="judge-pull&amp;nbsp;" style="rounded=0;whiteSpace=wrap;html=1;" parent="1" vertex="1">
          <mxGeometry x="30" y="-160" width="120" height="60" as="geometry" />
        </mxCell>
        <mxCell id="aq9Wkju7WMieX76XpXOd-6" style="edgeStyle=orthogonalEdgeStyle;rounded=0;orthogonalLoop=1;jettySize=auto;html=1;exitX=0.5;exitY=1;exitDx=0;exitDy=0;entryX=0.5;entryY=0;entryDx=0;entryDy=0;" parent="1" source="aq9Wkju7WMieX76XpXOd-2" target="aq9Wkju7WMieX76XpXOd-3" edge="1">
          <mxGeometry relative="1" as="geometry" />
        </mxCell>
        <mxCell id="aq9Wkju7WMieX76XpXOd-2" value="union-monitor&amp;nbsp;&amp;nbsp;/api/alarm/judge/strategies接口&lt;br&gt;(tingfeng-server)" style="rounded=0;whiteSpace=wrap;html=1;" parent="1" vertex="1">
          <mxGeometry x="-270" y="20" width="260" height="60" as="geometry" />
        </mxCell>
        <mxCell id="aq9Wkju7WMieX76XpXOd-3" value="mongodb&lt;br&gt;告警策略" style="rounded=0;whiteSpace=wrap;html=1;" parent="1" vertex="1">
          <mxGeometry x="-200" y="170" width="120" height="60" as="geometry" />
        </mxCell>
        <mxCell id="eq3cTL_iXHIbJ3R24xFc-3" style="edgeStyle=orthogonalEdgeStyle;rounded=0;orthogonalLoop=1;jettySize=auto;html=1;exitX=1;exitY=0.5;exitDx=0;exitDy=0;entryX=0;entryY=0.5;entryDx=0;entryDy=0;fontSize=15;" edge="1" parent="1" source="eq3cTL_iXHIbJ3R24xFc-1" target="eq3cTL_iXHIbJ3R24xFc-2">
          <mxGeometry relative="1" as="geometry" />
        </mxCell>
        <mxCell id="eq3cTL_iXHIbJ3R24xFc-1" value="每条告警策略&lt;br style=&quot;font-size: 15px;&quot;&gt;独占worker goroutine独立运行&lt;br style=&quot;font-size: 15px;&quot;&gt;运行间隔是每条策略不同" style="ellipse;whiteSpace=wrap;html=1;fontSize=15;" vertex="1" parent="1">
          <mxGeometry x="-710" y="630" width="220" height="90" as="geometry" />
        </mxCell>
        <mxCell id="eq3cTL_iXHIbJ3R24xFc-8" style="edgeStyle=orthogonalEdgeStyle;rounded=0;orthogonalLoop=1;jettySize=auto;html=1;exitX=1;exitY=0.5;exitDx=0;exitDy=0;entryX=0;entryY=0.5;entryDx=0;entryDy=0;fontSize=15;" edge="1" parent="1" source="eq3cTL_iXHIbJ3R24xFc-2" target="eq3cTL_iXHIbJ3R24xFc-5">
          <mxGeometry relative="1" as="geometry" />
        </mxCell>
        <mxCell id="eq3cTL_iXHIbJ3R24xFc-9" value="每条规则独立一个goroutine" style="edgeLabel;html=1;align=center;verticalAlign=middle;resizable=0;points=[];fontSize=15;" vertex="1" connectable="0" parent="eq3cTL_iXHIbJ3R24xFc-8">
          <mxGeometry x="-0.2105" y="-1" relative="1" as="geometry">
            <mxPoint as="offset" />
          </mxGeometry>
        </mxCell>
        <mxCell id="eq3cTL_iXHIbJ3R24xFc-2" value="2条规则&lt;br style=&quot;font-size: 15px;&quot;&gt;cpu利用率 &amp;gt; 60%&amp;nbsp; or&lt;br style=&quot;font-size: 15px;&quot;&gt;磁盘使用率 &amp;gt; 70%" style="ellipse;whiteSpace=wrap;html=1;fontSize=15;" vertex="1" parent="1">
          <mxGeometry x="-400" y="630" width="160" height="90" as="geometry" />
        </mxCell>
        <mxCell id="eq3cTL_iXHIbJ3R24xFc-12" style="edgeStyle=orthogonalEdgeStyle;rounded=0;orthogonalLoop=1;jettySize=auto;html=1;exitX=0.5;exitY=1;exitDx=0;exitDy=0;entryX=0.5;entryY=0;entryDx=0;entryDy=0;fontSize=15;" edge="1" parent="1" source="eq3cTL_iXHIbJ3R24xFc-5" target="eq3cTL_iXHIbJ3R24xFc-18">
          <mxGeometry relative="1" as="geometry">
            <mxPoint x="90" y="810" as="targetPoint" />
          </mxGeometry>
        </mxCell>
        <mxCell id="eq3cTL_iXHIbJ3R24xFc-13" value="以容器指标csp1m库为例，该库每分钟1个点&lt;br style=&quot;font-size: 15px;&quot;&gt;只有1个点其实" style="edgeLabel;html=1;align=center;verticalAlign=middle;resizable=0;points=[];fontSize=15;" vertex="1" connectable="0" parent="eq3cTL_iXHIbJ3R24xFc-12">
          <mxGeometry x="-0.2615" y="3" relative="1" as="geometry">
            <mxPoint x="-3" as="offset" />
          </mxGeometry>
        </mxCell>
        <mxCell id="eq3cTL_iXHIbJ3R24xFc-5" value="查询tshouse&lt;br style=&quot;font-size: 15px;&quot;&gt;过去120s-60s的点" style="ellipse;whiteSpace=wrap;html=1;fontSize=15;" vertex="1" parent="1">
          <mxGeometry x="30" y="635" width="120" height="80" as="geometry" />
        </mxCell>
        <mxCell id="eq3cTL_iXHIbJ3R24xFc-22" style="edgeStyle=orthogonalEdgeStyle;rounded=0;orthogonalLoop=1;jettySize=auto;html=1;exitX=0.5;exitY=1;exitDx=0;exitDy=0;entryX=0.5;entryY=0;entryDx=0;entryDy=0;fontSize=15;" edge="1" parent="1" target="eq3cTL_iXHIbJ3R24xFc-24">
          <mxGeometry relative="1" as="geometry">
            <mxPoint x="90" y="1000" as="targetPoint" />
            <mxPoint x="90" y="930" as="sourcePoint" />
            <Array as="points">
              <mxPoint x="90" y="910" />
              <mxPoint x="91" y="910" />
            </Array>
          </mxGeometry>
        </mxCell>
        <mxCell id="eq3cTL_iXHIbJ3R24xFc-26" value="是的话查询，然后计算" style="edgeLabel;html=1;align=center;verticalAlign=middle;resizable=0;points=[];fontSize=15;" vertex="1" connectable="0" parent="eq3cTL_iXHIbJ3R24xFc-22">
          <mxGeometry x="-0.2552" relative="1" as="geometry">
            <mxPoint x="-1" y="20" as="offset" />
          </mxGeometry>
        </mxCell>
        <mxCell id="eq3cTL_iXHIbJ3R24xFc-18" value="规则有运算符&lt;br style=&quot;font-size: 15px;&quot;&gt;该运算符是否需要再查一次tsdb" style="rhombus;whiteSpace=wrap;html=1;fontSize=15;" vertex="1" parent="1">
          <mxGeometry x="-48.75" y="800" width="277.5" height="110" as="geometry" />
        </mxCell>
        <mxCell id="eq3cTL_iXHIbJ3R24xFc-21" value="&lt;pre style=&quot;background-color: rgb(255, 255, 255); color: rgb(8, 8, 8); font-size: 15px;&quot;&gt;&lt;font face=&quot;Helvetica&quot; style=&quot;font-size: 15px;&quot;&gt;比方运算符是 &amp;gt; 则直接对比&lt;br style=&quot;font-size: 15px;&quot;&gt;运算符是 对比前五分钟环比上升超过 XX&lt;br style=&quot;font-size: 15px;&quot;&gt;则需要再查一次tsdb&lt;/font&gt;&lt;/pre&gt;" style="text;strokeColor=none;align=center;fillColor=none;html=1;verticalAlign=middle;whiteSpace=wrap;rounded=0;fontSize=15;" vertex="1" parent="1">
          <mxGeometry x="240" y="815" width="290" height="80" as="geometry" />
        </mxCell>
        <mxCell id="eq3cTL_iXHIbJ3R24xFc-35" style="edgeStyle=orthogonalEdgeStyle;rounded=0;orthogonalLoop=1;jettySize=auto;html=1;exitX=0;exitY=0.5;exitDx=0;exitDy=0;entryX=1;entryY=0.5;entryDx=0;entryDy=0;fontSize=15;" edge="1" parent="1" source="eq3cTL_iXHIbJ3R24xFc-24" target="eq3cTL_iXHIbJ3R24xFc-40">
          <mxGeometry relative="1" as="geometry">
            <mxPoint x="-50" y="1040" as="targetPoint" />
          </mxGeometry>
        </mxCell>
        <mxCell id="eq3cTL_iXHIbJ3R24xFc-45" value="符合条件" style="edgeLabel;html=1;align=center;verticalAlign=middle;resizable=0;points=[];fontSize=15;" vertex="1" connectable="0" parent="eq3cTL_iXHIbJ3R24xFc-35">
          <mxGeometry x="0.125" y="1" relative="1" as="geometry">
            <mxPoint x="5" y="-11" as="offset" />
          </mxGeometry>
        </mxCell>
        <mxCell id="eq3cTL_iXHIbJ3R24xFc-24" value="计算结果 对比该规则设置的阈值" style="ellipse;whiteSpace=wrap;html=1;fontSize=15;" vertex="1" parent="1">
          <mxGeometry x="30" y="1000" width="120" height="80" as="geometry" />
        </mxCell>
        <mxCell id="eq3cTL_iXHIbJ3R24xFc-31" style="edgeStyle=orthogonalEdgeStyle;rounded=0;orthogonalLoop=1;jettySize=auto;html=1;exitX=0;exitY=0.5;exitDx=0;exitDy=0;entryX=1;entryY=0.5;entryDx=0;entryDy=0;fontSize=15;" edge="1" parent="1" source="eq3cTL_iXHIbJ3R24xFc-28" target="eq3cTL_iXHIbJ3R24xFc-32">
          <mxGeometry relative="1" as="geometry">
            <mxPoint x="-573" y="1040" as="targetPoint" />
          </mxGeometry>
        </mxCell>
        <mxCell id="eq3cTL_iXHIbJ3R24xFc-28" value="把结果放进 channel" style="ellipse;whiteSpace=wrap;html=1;fontSize=15;" vertex="1" parent="1">
          <mxGeometry x="-518" y="1000" width="120" height="80" as="geometry" />
        </mxCell>
        <mxCell id="eq3cTL_iXHIbJ3R24xFc-33" style="edgeStyle=orthogonalEdgeStyle;rounded=0;orthogonalLoop=1;jettySize=auto;html=1;exitX=0.5;exitY=1;exitDx=0;exitDy=0;entryX=0.5;entryY=0;entryDx=0;entryDy=0;fontSize=15;" edge="1" parent="1" source="eq3cTL_iXHIbJ3R24xFc-32" target="eq3cTL_iXHIbJ3R24xFc-34">
          <mxGeometry relative="1" as="geometry">
            <mxPoint x="-653" y="1120" as="targetPoint" />
          </mxGeometry>
        </mxCell>
        <mxCell id="eq3cTL_iXHIbJ3R24xFc-32" value="下游另外一个goroutine在接数据&lt;br style=&quot;font-size: 15px;&quot;&gt;" style="ellipse;whiteSpace=wrap;html=1;fontSize=15;" vertex="1" parent="1">
          <mxGeometry x="-713" y="1000" width="120" height="80" as="geometry" />
        </mxCell>
        <mxCell id="eq3cTL_iXHIbJ3R24xFc-47" style="edgeStyle=orthogonalEdgeStyle;rounded=0;orthogonalLoop=1;jettySize=auto;html=1;exitX=0.5;exitY=1;exitDx=0;exitDy=0;entryX=0.5;entryY=0;entryDx=0;entryDy=0;fontSize=15;" edge="1" parent="1" source="eq3cTL_iXHIbJ3R24xFc-34" target="eq3cTL_iXHIbJ3R24xFc-49">
          <mxGeometry relative="1" as="geometry">
            <mxPoint x="-653" y="1280" as="targetPoint" />
          </mxGeometry>
        </mxCell>
        <mxCell id="eq3cTL_iXHIbJ3R24xFc-48" value="or" style="edgeLabel;html=1;align=center;verticalAlign=middle;resizable=0;points=[];fontSize=15;" vertex="1" connectable="0" parent="eq3cTL_iXHIbJ3R24xFc-47">
          <mxGeometry x="-0.0872" y="-2" relative="1" as="geometry">
            <mxPoint as="offset" />
          </mxGeometry>
        </mxCell>
        <mxCell id="eq3cTL_iXHIbJ3R24xFc-50" style="edgeStyle=orthogonalEdgeStyle;rounded=0;orthogonalLoop=1;jettySize=auto;html=1;exitX=1;exitY=0.5;exitDx=0;exitDy=0;entryX=0.5;entryY=0;entryDx=0;entryDy=0;fontSize=15;" edge="1" parent="1" source="eq3cTL_iXHIbJ3R24xFc-34" target="eq3cTL_iXHIbJ3R24xFc-52">
          <mxGeometry relative="1" as="geometry">
            <mxPoint x="-478" y="1430" as="targetPoint" />
          </mxGeometry>
        </mxCell>
        <mxCell id="eq3cTL_iXHIbJ3R24xFc-51" value="and" style="edgeLabel;html=1;align=center;verticalAlign=middle;resizable=0;points=[];fontSize=15;" vertex="1" connectable="0" parent="eq3cTL_iXHIbJ3R24xFc-50">
          <mxGeometry x="-0.0559" relative="1" as="geometry">
            <mxPoint as="offset" />
          </mxGeometry>
        </mxCell>
        <mxCell id="eq3cTL_iXHIbJ3R24xFc-34" value="几条规则是or&lt;br style=&quot;font-size: 15px;&quot;&gt;还是and" style="rhombus;whiteSpace=wrap;html=1;fontSize=15;" vertex="1" parent="1">
          <mxGeometry x="-728" y="1140" width="150" height="80" as="geometry" />
        </mxCell>
        <mxCell id="eq3cTL_iXHIbJ3R24xFc-37" style="edgeStyle=orthogonalEdgeStyle;rounded=0;orthogonalLoop=1;jettySize=auto;html=1;entryX=1;entryY=0.5;entryDx=0;entryDy=0;exitX=0;exitY=0.5;exitDx=0;exitDy=0;fontSize=15;" edge="1" parent="1" source="eq3cTL_iXHIbJ3R24xFc-40" target="eq3cTL_iXHIbJ3R24xFc-28">
          <mxGeometry relative="1" as="geometry">
            <mxPoint x="-403" y="1040" as="sourcePoint" />
          </mxGeometry>
        </mxCell>
        <mxCell id="eq3cTL_iXHIbJ3R24xFc-38" value="是" style="edgeLabel;html=1;align=center;verticalAlign=middle;resizable=0;points=[];fontSize=15;" vertex="1" connectable="0" parent="eq3cTL_iXHIbJ3R24xFc-37">
          <mxGeometry x="0.025" relative="1" as="geometry">
            <mxPoint as="offset" />
          </mxGeometry>
        </mxCell>
        <mxCell id="eq3cTL_iXHIbJ3R24xFc-41" style="edgeStyle=orthogonalEdgeStyle;rounded=0;orthogonalLoop=1;jettySize=auto;html=1;exitX=0.5;exitY=1;exitDx=0;exitDy=0;entryX=0.5;entryY=0;entryDx=0;entryDy=0;fontSize=15;" edge="1" parent="1" source="eq3cTL_iXHIbJ3R24xFc-40" target="eq3cTL_iXHIbJ3R24xFc-43">
          <mxGeometry relative="1" as="geometry">
            <mxPoint x="-203" y="1140" as="targetPoint" />
          </mxGeometry>
        </mxCell>
        <mxCell id="eq3cTL_iXHIbJ3R24xFc-42" value="否" style="edgeLabel;html=1;align=center;verticalAlign=middle;resizable=0;points=[];fontSize=15;" vertex="1" connectable="0" parent="eq3cTL_iXHIbJ3R24xFc-41">
          <mxGeometry x="-0.0559" relative="1" as="geometry">
            <mxPoint as="offset" />
          </mxGeometry>
        </mxCell>
        <mxCell id="eq3cTL_iXHIbJ3R24xFc-40" value="是否已经持续了超过&lt;br style=&quot;font-size: 15px;&quot;&gt;这条规则设置的时间？" style="rhombus;whiteSpace=wrap;html=1;fontSize=15;" vertex="1" parent="1">
          <mxGeometry x="-308" y="990" width="210" height="100" as="geometry" />
        </mxCell>
        <mxCell id="eq3cTL_iXHIbJ3R24xFc-43" value="把数据放在worker的内存里，并记录此次判断的相关数据（时间、是否满足条件）" style="rounded=0;whiteSpace=wrap;html=1;fontSize=15;" vertex="1" parent="1">
          <mxGeometry x="-301.75" y="1150" width="197.5" height="100" as="geometry" />
        </mxCell>
        <mxCell id="eq3cTL_iXHIbJ3R24xFc-49" value="省略很多逻辑&lt;br style=&quot;font-size: 15px;&quot;&gt;可以简单认为是发告警" style="rounded=0;whiteSpace=wrap;html=1;fontSize=15;" vertex="1" parent="1">
          <mxGeometry x="-725.5" y="1290" width="145" height="70" as="geometry" />
        </mxCell>
        <mxCell id="eq3cTL_iXHIbJ3R24xFc-52" value="等多条规则的goroutine运行完之后再看是不是全符合条件，是的话再告警" style="rounded=0;whiteSpace=wrap;html=1;fontSize=15;" vertex="1" parent="1">
          <mxGeometry x="-498" y="1370" width="145" height="70" as="geometry" />
        </mxCell>
      </root>
    </mxGraphModel>
  </diagram>
</mxfile>
